{"title":"10th And Wolf 2006 BRrip English Klambake","uid":6087705,"size":2608129735,"categoryP":"video","categoryS":"movies","magnet":"?xt=urn:btih:c62300b21cdfb52be67f74dca2b90aa35659e73a&amp;dn=10th+And+Wolf+2006+BRrip+English+Klambake&amp;tr=udp%3A%2F%2Ftracker.openbittorrent.com%3A80&amp;tr=udp%3A%2F%2Fopen.demonii.com%3A1337&amp;tr=udp%3A%2F%2Ftracker.coppersurfer.tk%3A6969&amp;tr=udp%3A%2F%2Fexodus.desync.com%3A6969","seeders":0,"leechers":1,"uploader":"Klambake","files":-1,"time":1294406289,"description":"[img]http://img529.imageshack.us/img529/1169/28619.jpg[/img]\n\nWith: James Marsden, Giovanni Ribisi and Dennis Hopper\n\nFebruary, 1991. Tommy, a Desert Storm marine dismayed that the US isn't taking out Saddam, breaks some rules and faces hard labor. An FBI agent offers him an out: go home to his gritty, dockside home in Pennsylvania and help get the goods on an Italian heroine dealer; in return, no prison time and no arrest of Tommy's brother Vincent and cousin Joey. Loyalty to family conflicts with loyalty to the code of the street. Can Tommy sort it out, protect his brother and cousin, and stay true? Do young men die - in the sands of the Middle East and on the mean streets of the US - for no reason? \n\nGeneral:\n\nComplete name                    : Movie\\10th And Wolf.avi\nFormat                           : AVI\nFormat/Info                      : Audio Video Interleave\nFormat profile                   : OpenDML\nFile size                        : 2.43 GiB\nDuration                         : 1h 49mn\nOverall bit rate                 : 3190 Kbps\nWriting application              : VirtualDubMod 1.5.10.2 (build 2540/release)\nWriting library                  : VirtualDubMod build 2540/release\n\nVideo:\n\nFormat                           : MPEG-4 Visual\nFormat profile                   : Advanced Simple@L5\nFormat settings, BVOP            : Yes\nFormat settings, QPel            : No\nFormat settings, GMC             : No warppoints\nFormat settings, Matrix          : Default (H.263)\nCodec ID                         : XVID\nCodec ID/Hint                    : XviD\nDuration                         : 1h 49mn\nBit rate                         : 2538 Kbps\nWidth                            : 1280 pixels\nHeight                           : 544 pixels\nDisplay aspect ratio             : 2.35:1\nFrame rate                       : 25.000 fps\nColor space                      : YUV\nChroma subsampling               : 4:2:0\nBit depth                        : 8 bits\nScan type                        : Progressive\nBits/(Pixel*Frame)               : 0.146\nStream size                      : 1.93 GiB (80%)\nWriting library                  : XviD 1.2.1 (UTC 2008-12-04)\n\nAudio:\n\nFormat                           : AC-3\nFormat/Info                      : Audio Coding 3\nMode extension                   : CM (complete main)\nCodec ID                         : 2000\nDuration                         : 1h 49mn\nBit rate mode                    : Constant\nBit rate                         : 640 Kbps\nChannel(s)                       : 2 channels\nChannel positions                : Front: L R\nSampling rate                    : 48.0 KHz\nBit depth                        : 16 bits\nStream size                      : 499 MiB (20%)\nAlignment                        : Aligned on interleaves\nInterleave, duration             : 40 ms (1.00 video frame)\nInterleave, preload duration     : 512 ms","torrent":{"xt":"urn:btih:c62300b21cdfb52be67f74dca2b90aa35659e73a","amp;dn":"10th+And+Wolf+2006+BRrip+English+Klambake","amp;tr":["udp%3A%2F%2Ftracker.openbittorrent.com%3A80","udp%3A%2F%2Fopen.demonii.com%3A1337","udp%3A%2F%2Ftracker.coppersurfer.tk%3A6969","udp%3A%2F%2Fexodus.desync.com%3A6969"],"infoHash":"c62300b21cdfb52be67f74dca2b90aa35659e73a","infoHashBuffer":{"type":"Buffer","data":[198,35,0,178,28,223,181,43,230,127,116,220,162,185,10,163,86,89,231,58]},"announce":[],"urlList":[]}}